<svg t="1711674975393" class="icon" viewBox="0 0 1024 1024" version="1.1" xmlns="http://www.w3.org/2000/svg" p-id="4284" width="200" height="200"><path d="M404.928 404.928H165.12V165.12h239.744v239.744z m453.76 0H619.072V165.12h239.744v239.744z m-453.76 453.76H165.12V619.072h239.744v239.744z m453.76 0H619.072V619.072h239.744v239.744zM398.592 102.4H171.52A69.248 69.248 0 0 0 102.4 171.52v226.944A69.248 69.248 0 0 0 171.52 467.776h226.944a69.248 69.248 0 0 0 69.248-69.248V171.52A69.248 69.248 0 0 0 398.528 102.4z m453.76 0H625.472A69.248 69.248 0 0 0 556.224 171.52v226.944a69.248 69.248 0 0 0 69.184 69.248h226.944A69.248 69.248 0 0 0 921.6 398.528V171.52A69.248 69.248 0 0 0 852.352 102.4z m-453.76 453.76H171.52A69.248 69.248 0 0 0 102.4 625.472v226.944A69.248 69.248 0 0 0 171.52 921.6h226.944a69.248 69.248 0 0 0 69.248-69.248V625.408a69.248 69.248 0 0 0-69.248-69.184z m453.76 0H625.472a69.248 69.248 0 0 0-69.184 69.248v226.944A69.248 69.248 0 0 0 625.408 921.6h226.944a69.248 69.248 0 0 0 69.248-69.248V625.408a69.248 69.248 0 0 0-69.248-69.184z" fill="#999999" p-id="4285"></path></svg>
